<?xml version="1.0" standalone="no"?>
<!DOCTYPE svg PUBLIC "-//W3C//DTD SVG 20010904//EN"
 "http://www.w3.org/TR/2001/REC-SVG-20010904/DTD/svg10.dtd">
<svg version="1.0" xmlns="http://www.w3.org/2000/svg"
 width="700.000000pt" height="700.000000pt" viewBox="0 0 700.000000 700.000000"
 preserveAspectRatio="xMidYMid meet">
<metadata>
Created by potrace 1.11, written by Peter Selinger 2001-2013
</metadata>
<g transform="translate(0.000000,700.000000) scale(0.100000,-0.100000)"
fill="#000000" stroke="none">
<path d="M3215 6989 c-1004 -86 -1899 -579 -2513 -1387 -373 -489 -613 -1101
-684 -1737 -17 -154 -17 -585 0 -730 118 -999 599 -1842 1394 -2442 424 -320
969 -554 1498 -642 229 -38 322 -45 590 -45 402 0 720 48 1077 164 707 229
1338 692 1771 1297 349 488 560 1044 634 1668 16 139 16 595 0 730 -46 379
-128 692 -268 1020 -343 801 -1002 1466 -1803 1819 -526 231 -1132 333 -1696
285z m1741 -1224 c307 -54 578 -261 719 -550 82 -167 99 -245 99 -445 0 -140
-3 -178 -22 -250 -33 -121 -118 -289 -196 -385 -35 -44 -283 -298 -550 -565
l-486 -485 -107 107 -108 108 506 507 c278 280 520 528 536 553 46 68 79 138
104 220 33 107 33 274 0 380 -78 253 -261 431 -511 497 -88 23 -254 23 -340 0
-81 -22 -199 -77 -254 -119 -22 -17 -267 -257 -544 -532 l-502 -501 -108 108
-107 107 520 519 c572 570 598 593 792 671 55 22 135 46 179 54 106 19 272 19
380 1z m-1348 -2372 l-913 -913 -107 107 -108 108 912 912 913 913 107 -107
108 -108 -912 -912z m-1018 412 l105 -105 -506 -507 c-278 -280 -520 -528
-536 -553 -46 -68 -79 -138 -104 -220 -33 -106 -33 -273 0 -380 64 -207 191
-358 376 -446 223 -106 460 -93 683 37 41 24 205 181 575 549 l517 515 108
-108 107 -107 -485 -486 c-267 -267 -521 -515 -565 -550 -96 -78 -264 -163
-385 -196 -72 -19 -110 -22 -250 -22 -200 0 -278 17 -445 99 -208 101 -359
252 -460 460 -82 167 -99 245 -100 445 0 141 4 177 23 250 29 105 97 251 158
339 40 56 1058 1091 1074 1091 3 0 52 -47 110 -105z"/>
</g>
</svg>
