<svg version="1" xmlns="http://www.w3.org/2000/svg" width="933.333" height="933.333" viewBox="0 0 700.000000 700.000000"><path d="M321.5 1.1C221.1 9.7 131.6 59 70.2 139.8 32.9 188.7 8.9 249.9 1.8 313.5c-1.7 15.4-1.7 58.5 0 73 11.8 99.9 59.9 184.2 139.4 244.2 42.4 32 96.9 55.4 149.8 64.2 22.9 3.8 32.2 4.5 59 4.5 40.2 0 72-4.8 107.7-16.4 70.7-22.9 133.8-69.2 177.1-129.7 34.9-48.8 56-104.4 63.4-166.8 1.6-13.9 1.6-59.5 0-73-4.6-37.9-12.8-69.2-26.8-102-34.3-80.1-100.2-146.6-180.3-181.9C438.5 6.5 377.9-3.7 321.5 1.1zm174.1 122.4c30.7 5.4 57.8 26.1 71.9 55 8.2 16.7 9.9 24.5 9.9 44.5 0 14-.3 17.8-2.2 25-3.3 12.1-11.8 28.9-19.6 38.5-3.5 4.4-28.3 29.8-55 56.5L452 391.5l-10.7-10.7-10.8-10.8 50.6-50.7c27.8-28 52-52.8 53.6-55.3 4.6-6.8 7.9-13.8 10.4-22 3.3-10.7 3.3-27.4 0-38-7.8-25.3-26.1-43.1-51.1-49.7-8.8-2.3-25.4-2.3-34 0-8.1 2.2-19.9 7.7-25.4 11.9-2.2 1.7-26.7 25.7-54.4 53.2L330 269.5l-10.8-10.8-10.7-10.7 52-51.9c57.2-57 59.8-59.3 79.2-67.1 5.5-2.2 13.5-4.6 17.9-5.4 10.6-1.9 27.2-1.9 38-.1zM360.8 360.7L269.5 452l-10.7-10.7-10.8-10.8 91.2-91.2 91.3-91.3 10.7 10.7 10.8 10.8-91.2 91.2zM259 319.5l10.5 10.5-50.6 50.7c-27.8 28-52 52.8-53.6 55.3-4.6 6.8-7.9 13.8-10.4 22-3.3 10.6-3.3 27.3 0 38 6.4 20.7 19.1 35.8 37.6 44.6 22.3 10.6 46 9.3 68.3-3.7 4.1-2.4 20.5-18.1 57.5-54.9l51.7-51.5 10.8 10.8 10.7 10.7-48.5 48.6c-26.7 26.7-52.1 51.5-56.5 55-9.6 7.8-26.4 16.3-38.5 19.6-7.2 1.9-11 2.2-25 2.2-20 0-27.8-1.7-44.5-9.9-20.8-10.1-35.9-25.2-46-46-8.2-16.7-9.9-24.5-10-44.5 0-14.1.4-17.7 2.3-25 2.9-10.5 9.7-25.1 15.8-33.9 4-5.6 105.8-109.1 107.4-109.1.3 0 5.2 4.7 11 10.5z"/></svg>